<svg xmlns="http://www.w3.org/2000/svg" viewBox="0 0 64 64">
  <defs>
    <linearGradient id="g" x1="0" y1="0" x2="1" y2="1">
      <stop offset="0%" stop-color="#6366f1"/>
      <stop offset="100%" stop-color="#06b6d4"/>
    </linearGradient>
  </defs>
  <!-- Background circle -->
  <circle cx="32" cy="32" r="30" fill="url(#g)" opacity="0.95"/>
  <!-- Neural network nodes -->
  <circle cx="20" cy="22" r="3.5" fill="#fff" opacity="0.9"/>
  <circle cx="32" cy="14" r="3.5" fill="#fff" opacity="0.9"/>
  <circle cx="44" cy="22" r="3.5" fill="#fff" opacity="0.9"/>
  <circle cx="20" cy="36" r="3.5" fill="#fff" opacity="0.9"/>
  <circle cx="32" cy="44" r="3.5" fill="#fff" opacity="0.9"/>
  <circle cx="44" cy="36" r="3.5" fill="#fff" opacity="0.9"/>
  <circle cx="32" cy="30" r="4" fill="#fff" opacity="0.95"/>
  <!-- Connections -->
  <line x1="20" y1="22" x2="32" y2="14" stroke="#fff" stroke-width="1.5" opacity="0.5"/>
  <line x1="44" y1="22" x2="32" y2="14" stroke="#fff" stroke-width="1.5" opacity="0.5"/>
  <line x1="20" y1="22" x2="32" y2="30" stroke="#fff" stroke-width="1.5" opacity="0.5"/>
  <line x1="44" y1="22" x2="32" y2="30" stroke="#fff" stroke-width="1.5" opacity="0.5"/>
  <line x1="20" y1="36" x2="32" y2="30" stroke="#fff" stroke-width="1.5" opacity="0.5"/>
  <line x1="44" y1="36" x2="32" y2="30" stroke="#fff" stroke-width="1.5" opacity="0.5"/>
  <line x1="20" y1="36" x2="32" y2="44" stroke="#fff" stroke-width="1.5" opacity="0.5"/>
  <line x1="44" y1="36" x2="32" y2="44" stroke="#fff" stroke-width="1.5" opacity="0.5"/>
</svg>
